<?xml version="1.0" encoding="UTF-8" standalone="no"?>
<svg width="32px" height="32px" viewBox="0 0 32 32" version="1.1" xmlns="http://www.w3.org/2000/svg" xmlns:xlink="http://www.w3.org/1999/xlink">
    <!-- Generator: Sketch 41 (35326) - http://www.bohemiancoding.com/sketch -->
    <title>yt</title>
    <desc>Created with Sketch.</desc>
    <defs></defs>
    <g id="Welcome" stroke="none" stroke-width="1" fill="none" fill-rule="evenodd">
        <g id="Desktop" transform="translate(-756.000000, -2941.000000)">
            <g id="Group-16" transform="translate(493.000000, 2940.000000)">
                <g id="yt" transform="translate(263.000000, 0.000000)">
                    <g id="Flat_copy">
                        <g id="Group">
                            <path d="M16,32.62 C7.384,32.62 0.375,25.61 0.375,16.995 C0.375,8.38 7.384,1.37 16,1.37 C24.615,1.37 31.625,8.38 31.625,16.995 C31.625,25.61 24.615,32.62 16,32.62 Z" id="Shape" fill="#FFFFFF"></path>
                            <path d="M16,1.745 C24.409,1.745 31.25,8.586 31.25,16.995 C31.25,25.404 24.409,32.245 16,32.245 C7.591,32.245 0.75,25.404 0.75,16.995 C0.75,8.586 7.591,1.745 16,1.745 L16,1.745 Z M16,0.995 C7.163,0.995 0,8.158 0,16.995 C0,25.831 7.163,32.995 16,32.995 C24.837,32.995 32,25.831 32,16.995 C32,8.158 24.837,0.995 16,0.995 L16,0.995 Z" id="Shape" fill="#E5E5E5"></path>
                        </g>
                        <g id="Group" transform="translate(8.000000, 16.000000)" fill="#333333">
                            <path d="M13.15,4.585 C13.004,4.585 12.9,4.626 12.836,4.713 C12.773,4.795 12.742,4.935 12.742,5.13 L12.742,5.6 L13.551,5.6 L13.551,5.13 C13.551,4.935 13.518,4.795 13.454,4.713 C13.392,4.626 13.289,4.585 13.15,4.585 Z" id="Shape"></path>
                            <path d="M9.996,4.568 C9.93,4.568 9.866,4.582 9.802,4.613 C9.739,4.643 9.676,4.691 9.613,4.755 L9.613,7.654 C9.687,7.728 9.76,7.786 9.83,7.818 C9.9,7.851 9.973,7.868 10.051,7.868 C10.163,7.868 10.245,7.836 10.297,7.769 C10.349,7.704 10.377,7.599 10.377,7.449 L10.377,5.047 C10.377,4.89 10.344,4.77 10.28,4.69 C10.215,4.608 10.119,4.568 9.996,4.568 Z" id="Shape"></path>
                            <path d="M15.079,0.962 C14.327,0.212 7.997,0.202 7.997,0.202 C7.997,0.201 1.667,0.211 0.914,0.961 C0.161,1.713 0.159,5.423 0.159,5.444 C0.159,5.472 0.161,9.176 0.914,9.928 C1.667,10.678 7.997,10.694 7.997,10.694 C7.997,10.694 14.328,10.678 15.079,9.928 C15.835,9.174 15.842,5.444 15.842,5.444 C15.842,5.424 15.833,1.714 15.079,0.962 Z M4.987,3.149 L3.921,3.149 L3.921,8.539 L2.89,8.539 L2.89,3.149 L1.823,3.149 L1.823,2.233 L4.986,2.233 L4.986,3.149 L4.987,3.149 Z M8,8.538 L7.087,8.538 L7.087,8.027 C6.917,8.216 6.742,8.36 6.558,8.458 C6.375,8.558 6.198,8.606 6.027,8.606 C5.815,8.606 5.658,8.538 5.549,8.398 C5.444,8.259 5.389,8.053 5.389,7.775 L5.389,3.885 L6.303,3.885 L6.303,7.453 C6.303,7.564 6.322,7.643 6.359,7.693 C6.399,7.743 6.462,7.767 6.547,7.767 C6.614,7.767 6.7,7.735 6.803,7.668 C6.906,7.603 7,7.52 7.087,7.419 L7.087,3.885 L8,3.885 L8,8.538 Z M11.319,7.577 C11.319,7.906 11.247,8.158 11.104,8.334 C10.962,8.51 10.753,8.597 10.482,8.597 C10.302,8.597 10.143,8.565 10.004,8.496 C9.864,8.428 9.732,8.325 9.613,8.181 L9.613,8.538 L8.689,8.538 L8.689,2.232 L9.613,2.232 L9.613,4.263 C9.737,4.121 9.867,4.012 10.005,3.94 C10.145,3.866 10.285,3.829 10.427,3.829 C10.717,3.829 10.938,3.928 11.09,4.125 C11.244,4.324 11.319,4.614 11.319,4.995 L11.319,7.577 Z M14.491,6.325 L12.742,6.325 L12.742,7.2 C12.742,7.445 12.772,7.615 12.831,7.71 C12.893,7.805 12.995,7.851 13.141,7.851 C13.292,7.851 13.398,7.811 13.459,7.731 C13.519,7.651 13.551,7.475 13.551,7.2 L13.551,6.988 L14.492,6.988 L14.492,7.227 C14.492,7.704 14.378,8.063 14.148,8.306 C13.92,8.547 13.577,8.666 13.122,8.666 C12.713,8.666 12.389,8.539 12.154,8.283 C11.919,8.028 11.8,7.677 11.8,7.228 L11.8,5.139 C11.8,4.737 11.931,4.406 12.189,4.153 C12.447,3.899 12.78,3.772 13.19,3.772 C13.609,3.772 13.931,3.89 14.156,4.125 C14.381,4.36 14.492,4.698 14.492,5.139 L14.492,6.325 L14.491,6.325 Z" id="Shape"></path>
                        </g>
                        <path d="M21.146,14.251 L20.116,14.251 L20.116,13.685 C19.928,13.893 19.73,14.053 19.524,14.161 C19.319,14.27 19.12,14.325 18.927,14.325 C18.687,14.325 18.509,14.248 18.389,14.096 C18.269,13.943 18.208,13.715 18.208,13.409 L18.208,9.126 L19.236,9.126 L19.236,13.055 C19.236,13.176 19.26,13.264 19.303,13.318 C19.345,13.373 19.416,13.4 19.512,13.4 C19.587,13.4 19.683,13.364 19.799,13.292 C19.914,13.22 20.021,13.128 20.116,13.016 L20.116,9.126 L21.146,9.126 L21.146,14.251 L21.146,14.251 Z" id="Shape" fill="#333333"></path>
                        <path d="M16.965,9.369 C16.692,9.121 16.342,8.996 15.916,8.996 C15.449,8.996 15.075,9.114 14.799,9.349 C14.521,9.584 14.382,9.9 14.383,10.298 L14.383,12.954 C14.383,13.39 14.519,13.736 14.788,13.994 C15.059,14.251 15.42,14.38 15.87,14.38 C16.339,14.38 16.705,14.255 16.974,14.006 C17.24,13.756 17.373,13.413 17.373,12.975 L17.373,10.327 C17.372,9.937 17.236,9.617 16.965,9.369 Z M16.323,13.052 C16.323,13.188 16.282,13.296 16.2,13.376 C16.117,13.454 16.007,13.493 15.868,13.493 C15.731,13.493 15.626,13.455 15.554,13.378 C15.481,13.3 15.443,13.192 15.443,13.052 L15.443,10.26 C15.443,10.148 15.483,10.057 15.561,9.988 C15.64,9.919 15.742,9.885 15.868,9.885 C16.003,9.885 16.113,9.919 16.197,9.988 C16.281,10.057 16.323,10.148 16.323,10.26 L16.323,13.052 Z" id="Shape" fill="#333333"></path>
                        <polygon id="Shape" fill="#333333" points="11.578 7.305 10.41 7.305 11.79 11.499 11.79 14.251 12.95 14.251 12.95 11.369 14.299 7.305 13.12 7.305 12.404 10.081 12.331 10.081"></polygon>
                    </g>
                </g>
            </g>
        </g>
    </g>
</svg>